<svg width="34" height="34" viewBox="0 0 34 34" fill="none" xmlns="http://www.w3.org/2000/svg">
<path d="M28.7107 16.6222C27.0107 14.8278 24.744 13.6 22.3829 13.1278C21.344 12.8444 20.3051 12.6555 19.2662 12.5611C21.9107 9.44444 21.4384 4.72221 18.3218 2.07777C15.2051 -0.566675 10.4829 -0.0944528 7.83844 3.02221C5.19399 6.13888 5.66622 10.8611 8.78288 13.5055C9.34955 13.9778 9.91622 14.3555 10.4829 14.5444V16.6222L8.97177 15.2055C7.64955 13.8833 5.47733 13.8833 4.06066 15.2055C2.73844 16.5278 2.64399 18.6056 3.96622 19.9278L8.31066 25.0278C8.49955 26.35 8.97177 27.5778 9.63288 28.7111C10.1051 29.5611 10.7662 30.4111 11.4273 31.0722V32.8667C11.4273 33.4333 11.8051 33.8111 12.3718 33.8111H25.2162C25.6884 33.8111 26.1607 33.3389 26.1607 32.8667V30.4111C27.9551 28.2389 28.8996 25.5 28.8996 22.7611V17.2833C28.994 16.9055 28.8996 16.7167 28.7107 16.6222V16.6222ZM7.93288 7.74444C7.93288 4.62777 10.4829 2.17221 13.5996 2.26666C16.7162 2.26666 19.1718 4.81666 19.0773 7.93333C19.0773 9.63333 18.3218 11.1444 16.9996 12.1833V7.4611C16.9513 6.64262 16.5918 5.87359 15.9948 5.31166C15.3977 4.74972 14.6083 4.43746 13.7884 4.43888C12.0884 4.34444 10.5773 5.7611 10.5773 7.4611V12.3722C8.97177 11.4278 8.02733 9.63333 7.93288 7.74444ZM27.1051 22.6667C27.1996 25.1222 26.3496 27.4833 24.744 29.3722C24.5551 29.5611 24.3662 29.75 24.3662 30.0333V32.0167H13.4107V30.6944C13.4107 30.4111 13.2218 30.1278 13.0329 29.9389C12.3718 29.3722 11.8051 28.7111 11.3329 27.8611C10.7662 26.9167 10.3884 25.7833 10.1996 24.65C10.1996 24.4611 10.1051 24.2722 10.0107 24.0833L5.47733 18.7C5.19399 18.4167 5.00511 18.0389 5.00511 17.5667C5.00511 17.1889 5.19399 16.7167 5.47733 16.4333C6.13844 15.8667 7.08288 15.8667 7.74399 16.4333L10.4829 19.1722V22.0055L12.2773 21.0611V7.4611C12.3718 6.79999 12.9384 6.23333 13.694 6.32777C14.3551 6.32777 15.0162 6.79999 15.0162 7.4611V18.3222L16.9051 18.7V14.3555C16.9996 14.2611 17.094 14.2611 17.1884 14.1667C17.8496 14.1667 18.5107 14.2611 19.1718 14.3555V19.1722L20.6829 19.4556V14.5444L21.8162 14.8278C22.2884 14.9222 22.7607 15.1111 23.2329 15.3V20.0222L24.744 20.3055V15.9611C25.594 16.3389 26.3496 16.9056 27.0107 17.5667L27.1051 22.6667V22.6667Z" fill="white"/>
</svg>
